<svg width="250" height="150" viewBox="0 0 250 150" fill="none" xmlns="http://www.w3.org/2000/svg">
<path d="M74.4192 98.9629L109.16 91.7846C116.813 88.2659 119.463 85.9402 122.494 81.4792C124.136 75.6099 123.376 73.1589 118.58 70.8264C114.327 69.3427 111.985 69.4869 107.937 72.5632C104.023 75.3386 102.764 77.1331 101.331 80.5525C100.023 84.7124 100.168 87.2019 101.331 91.7846C105.011 97.3028 108.028 99.6126 115.399 102.205C123.731 104.535 127.863 105.103 134.605 105.215C134.605 105.215 145.798 103.456 157.113 101.278C168.428 99.1006 173.86 92.7733 180.723 90.8575" stroke="#E5E5E5" stroke-width="0.7" stroke-dasharray="1.4 1.4"/>
<path d="M191.83 65.6142L180.037 68.7429L162.885 80.835L158.061 87.1767L173.248 81.8497M191.83 65.6142C196.267 62.919 198.781 61.4869 203.622 60.0337V60.7102M191.83 65.6142L173.248 81.8497M201.478 64.9381L203.622 61.3867V60.7102M201.478 62.3399V64.9381L202.55 76.438C198.498 81.1795 196.543 83.9964 194.152 89.5445C191.419 88.0066 189.881 86.9438 187.095 84.0905L180.037 78.6365M201.478 62.3399C192.364 68.1329 187.693 71.7442 180.037 78.6365L181.824 89.9673M187.095 84.0905L181.824 89.9673L173.248 81.8497M203.622 60.7102L201.478 62.3399" stroke="#E5E5E5" stroke-width="0.7"/>
<path d="M44.4055 84.4434C44.0141 84.4434 43.7284 84.3534 43.5486 84.1736C43.3687 83.9937 43.2788 83.7081 43.2788 83.3167V65.813C43.2788 65.4215 43.3687 65.1412 43.5486 64.9719C43.7284 64.7921 44.0141 64.7021 44.4055 64.7021H54.7363C55.0326 64.7021 55.2441 64.8132 55.3711 65.0354C55.5086 65.2576 55.5774 65.6173 55.5774 66.1145V66.9714C55.5774 67.4687 55.5086 67.8284 55.3711 68.0505C55.2441 68.2727 55.0326 68.3838 54.7363 68.3838H47.627V72.478H53.9746C54.2708 72.478 54.4824 72.5891 54.6094 72.8113C54.7469 73.0334 54.8157 73.3931 54.8157 73.8904V74.7632C54.8157 75.2604 54.7469 75.6201 54.6094 75.8423C54.4824 76.0645 54.2708 76.1755 53.9746 76.1755H47.627V80.7458H54.7522C55.0484 80.7458 55.26 80.8569 55.387 81.0791C55.5245 81.3013 55.5933 81.6557 55.5933 82.1423V83.031C55.5933 83.5282 55.5245 83.8879 55.387 84.1101C55.26 84.3323 55.0484 84.4434 54.7522 84.4434H44.4055ZM63.2263 84.6814C62.2001 84.6814 61.285 84.3852 60.481 83.7927C59.6875 83.1897 59.0633 82.3169 58.6084 81.1743C58.1641 80.0212 57.9419 78.6458 57.9419 77.0483C57.9419 75.5143 58.1746 74.176 58.6401 73.0334C59.1056 71.8909 59.7827 71.0128 60.6714 70.3992C61.5706 69.775 62.6444 69.4629 63.8928 69.4629C65.0142 69.4629 65.9717 69.7538 66.7651 70.3357V64.0833C66.7651 63.4696 67.3311 63.1628 68.4631 63.1628H69.2566C69.8385 63.1628 70.2616 63.2422 70.5261 63.4009C70.8012 63.549 70.9387 63.7764 70.9387 64.0833V79.4604C70.9387 80.3385 70.9599 81.0209 71.0022 81.5076C71.0551 81.9942 71.1239 82.4756 71.2085 82.9517C71.2614 83.2373 71.2878 83.4383 71.2878 83.5547C71.2878 83.7663 71.0868 83.9408 70.6848 84.0784C70.2934 84.2159 69.8438 84.3164 69.3359 84.3799C68.8387 84.4434 68.4367 84.4751 68.1299 84.4751C67.8019 84.4751 67.5692 84.3481 67.4316 84.0942C67.3047 83.8403 67.1883 83.4701 67.0825 82.9834L66.9873 82.5549C66.6488 83.1791 66.1462 83.6922 65.4797 84.0942C64.8132 84.4857 64.0621 84.6814 63.2263 84.6814ZM64.4641 81.2537C65.3528 81.2537 66.1198 80.6982 66.7651 79.5874V73.2874C66.0986 72.9277 65.4427 72.7478 64.7974 72.7478C63.0412 72.7478 62.1631 74.1813 62.1631 77.0483C62.1631 79.8519 62.9301 81.2537 64.4641 81.2537ZM78.54 84.6814C77.1224 84.6814 76.075 84.3111 75.3979 83.5706C74.7209 82.8194 74.3823 81.661 74.3823 80.0952V70.5261C74.3823 70.2299 74.5199 70.0077 74.7949 69.8596C75.07 69.7115 75.4985 69.6375 76.0803 69.6375H76.8579C77.4398 69.6375 77.8682 69.7115 78.1433 69.8596C78.4184 70.0077 78.5559 70.2299 78.5559 70.5261V79.4604C78.5559 80.0423 78.6882 80.4814 78.9526 80.7776C79.2171 81.0738 79.6509 81.2219 80.2539 81.2219C80.7723 81.2219 81.2219 81.0579 81.6028 80.73C81.9942 80.3914 82.2957 80.0106 82.5073 79.5874V70.5261C82.5073 70.2299 82.6449 70.0077 82.9199 69.8596C83.195 69.7115 83.6235 69.6375 84.2053 69.6375H84.9829C85.5648 69.6375 85.9932 69.7115 86.2683 69.8596C86.5434 70.0077 86.6809 70.2299 86.6809 70.5261V79.4604C86.6809 80.3491 86.7021 81.0474 86.7444 81.5552C86.7973 82.0524 86.8608 82.5179 86.9348 82.9517C86.9877 83.2373 87.0142 83.4383 87.0142 83.5547C87.0142 83.7663 86.8184 83.9408 86.427 84.0784C86.0356 84.2159 85.5859 84.3164 85.0781 84.3799C84.5809 84.4434 84.1789 84.4751 83.8721 84.4751C83.5335 84.4751 83.2902 84.3429 83.1421 84.0784C83.0046 83.8033 82.8935 83.4172 82.8088 82.9199L82.7295 82.5232C82.2852 83.1262 81.6874 83.6393 80.9363 84.0625C80.1957 84.4751 79.397 84.6814 78.54 84.6814ZM98.6621 84.491C97.5407 84.491 96.98 84.1947 96.98 83.6023V74.6521C96.98 73.2979 96.8901 72.1712 96.7102 71.272C96.6573 70.9863 96.6309 70.7853 96.6309 70.6689C96.6309 70.4574 96.8266 70.2881 97.218 70.1611C97.62 70.0236 98.0697 69.9231 98.5669 69.8596C99.0747 69.7961 99.482 69.7644 99.7888 69.7644C100.117 69.7644 100.344 69.8861 100.471 70.1294C100.609 70.3727 100.73 70.7271 100.836 71.1926L100.931 71.6052C101.291 70.9493 101.704 70.4309 102.169 70.05C102.645 69.6586 103.254 69.4629 103.994 69.4629C104.608 69.4629 105.031 69.6216 105.264 69.939C105.496 70.2458 105.613 70.5949 105.613 70.9863C105.613 71.1979 105.576 71.4994 105.502 71.8909C105.428 72.2717 105.322 72.6103 105.184 72.9065C105.047 73.2027 104.893 73.3508 104.724 73.3508C104.608 73.3508 104.433 73.3191 104.2 73.2556C103.883 73.171 103.613 73.1287 103.391 73.1287C102.873 73.1287 102.418 73.2768 102.026 73.573C101.646 73.8586 101.355 74.1813 101.154 74.541V83.6023C101.154 84.1947 100.582 84.491 99.4397 84.491H98.6621ZM114.087 84.6814C111.611 84.6814 109.765 84.0202 108.549 82.6978C107.332 81.3647 106.724 79.5186 106.724 77.1594C106.724 74.504 107.332 72.5574 108.549 71.3196C109.765 70.0818 111.442 69.4629 113.579 69.4629C114.997 69.4629 116.155 69.7856 117.054 70.4309C117.964 71.0763 118.625 71.9438 119.038 73.0334C119.461 74.1231 119.673 75.3556 119.673 76.731C119.673 76.8896 119.578 77.1012 119.387 77.3657C119.207 77.6302 119.001 77.8682 118.768 78.0798C118.536 78.2914 118.356 78.3972 118.229 78.3972H111.04C111.135 79.4763 111.453 80.2433 111.992 80.6982C112.542 81.1426 113.304 81.3647 114.277 81.3647C114.806 81.3647 115.282 81.3066 115.706 81.1902C116.139 81.0632 116.6 80.8993 117.086 80.6982C117.382 80.5607 117.583 80.4919 117.689 80.4919C117.88 80.4919 118.086 80.6295 118.308 80.9045C118.541 81.169 118.737 81.4758 118.895 81.825C119.065 82.1741 119.149 82.4438 119.149 82.6343C119.149 83.068 118.853 83.4383 118.26 83.7451C117.679 84.0519 116.986 84.2847 116.182 84.4434C115.388 84.6021 114.69 84.6814 114.087 84.6814ZM115.61 75.6201C115.61 74.7526 115.441 74.0597 115.103 73.5413C114.764 73.0123 114.256 72.7478 113.579 72.7478C112.183 72.7478 111.336 73.7052 111.04 75.6201H115.61ZM126.322 84.6814C125.592 84.6814 124.867 84.6021 124.148 84.4434C123.429 84.2847 122.831 84.0572 122.355 83.761C121.889 83.4648 121.656 83.1262 121.656 82.7454C121.656 82.5126 121.741 82.2217 121.91 81.8726C122.08 81.5234 122.281 81.2219 122.513 80.968C122.757 80.7035 122.968 80.5713 123.148 80.5713C123.243 80.5713 123.45 80.6453 123.767 80.7935C124.137 80.9627 124.492 81.1003 124.83 81.2061C125.169 81.3118 125.555 81.3647 125.989 81.3647C126.528 81.3647 126.936 81.2642 127.211 81.0632C127.486 80.8622 127.623 80.566 127.623 80.1746C127.623 79.8783 127.539 79.635 127.369 79.4446C127.211 79.2436 127.004 79.0796 126.75 78.9526C126.497 78.8257 126.137 78.6723 125.671 78.4924L125.211 78.3179C124.608 78.0851 124.079 77.8206 123.624 77.5244C123.169 77.2282 122.783 76.7997 122.466 76.239C122.148 75.6677 121.99 74.9483 121.99 74.0808C121.99 73.1181 122.196 72.2929 122.609 71.6052C123.032 70.907 123.63 70.378 124.402 70.0183C125.174 69.648 126.084 69.4629 127.131 69.4629C127.734 69.4629 128.364 69.5211 129.02 69.6375C129.676 69.7538 130.226 69.9337 130.67 70.177C131.125 70.4203 131.353 70.7271 131.353 71.0974C131.353 71.309 131.284 71.5946 131.146 71.9543C131.019 72.314 130.861 72.6314 130.67 72.9065C130.48 73.1816 130.3 73.3191 130.131 73.3191C130.078 73.3191 129.93 73.2715 129.686 73.1763C129.358 73.0387 129.041 72.9329 128.734 72.8589C128.438 72.7743 128.094 72.7319 127.703 72.7319C126.708 72.7319 126.211 73.0599 126.211 73.7158C126.211 74.012 126.301 74.266 126.481 74.4775C126.671 74.6891 126.904 74.8637 127.179 75.0012C127.454 75.1388 127.84 75.3027 128.337 75.4932C128.909 75.7259 129.263 75.874 129.401 75.9375C130.141 76.3078 130.734 76.7997 131.178 77.4133C131.633 78.0164 131.86 78.8257 131.86 79.8413C131.86 80.804 131.643 81.6504 131.21 82.3804C130.776 83.1104 130.141 83.6764 129.305 84.0784C128.47 84.4804 127.475 84.6814 126.322 84.6814ZM140.461 84.6814C138.229 84.6814 136.526 84.0255 135.352 82.7136C134.188 81.4018 133.606 79.5133 133.606 77.0483C133.606 74.5939 134.188 72.7161 135.352 71.4148C136.526 70.1135 138.229 69.4629 140.461 69.4629C142.694 69.4629 144.386 70.1135 145.54 71.4148C146.703 72.7055 147.285 74.5833 147.285 77.0483C147.285 79.5133 146.703 81.4018 145.54 82.7136C144.386 84.0255 142.694 84.6814 140.461 84.6814ZM140.461 81.3647C141.35 81.3647 142.001 81.005 142.413 80.2856C142.837 79.5662 143.048 78.4871 143.048 77.0483C143.048 75.6201 142.837 74.5463 142.413 73.8269C142.001 73.1075 141.35 72.7478 140.461 72.7478C138.705 72.7478 137.827 74.1813 137.827 77.0483C137.827 78.4766 138.039 79.5557 138.462 80.2856C138.896 81.005 139.562 81.3647 140.461 81.3647ZM154.299 84.6814C152.882 84.6814 151.834 84.3111 151.157 83.5706C150.48 82.8194 150.142 81.661 150.142 80.0952V70.5261C150.142 70.2299 150.279 70.0077 150.554 69.8596C150.829 69.7115 151.258 69.6375 151.84 69.6375H152.617C153.199 69.6375 153.628 69.7115 153.903 69.8596C154.178 70.0077 154.315 70.2299 154.315 70.5261V79.4604C154.315 80.0423 154.447 80.4814 154.712 80.7776C154.976 81.0738 155.41 81.2219 156.013 81.2219C156.532 81.2219 156.981 81.0579 157.362 80.73C157.753 80.3914 158.055 80.0106 158.267 79.5874V70.5261C158.267 70.2299 158.404 70.0077 158.679 69.8596C158.954 69.7115 159.383 69.6375 159.965 69.6375H160.742C161.324 69.6375 161.753 69.7115 162.028 69.8596C162.303 70.0077 162.44 70.2299 162.44 70.5261V79.4604C162.44 80.3491 162.461 81.0474 162.504 81.5552C162.557 82.0524 162.62 82.5179 162.694 82.9517C162.747 83.2373 162.773 83.4383 162.773 83.5547C162.773 83.7663 162.578 83.9408 162.186 84.0784C161.795 84.2159 161.345 84.3164 160.837 84.3799C160.34 84.4434 159.938 84.4751 159.631 84.4751C159.293 84.4751 159.049 84.3429 158.901 84.0784C158.764 83.8033 158.653 83.4172 158.568 82.9199L158.489 82.5232C158.044 83.1262 157.447 83.6393 156.696 84.0625C155.955 84.4751 155.156 84.6814 154.299 84.6814ZM167.629 84.491C166.508 84.491 165.947 84.1947 165.947 83.6023V74.6521C165.947 73.2979 165.857 72.1712 165.677 71.272C165.625 70.9863 165.598 70.7853 165.598 70.6689C165.598 70.4574 165.794 70.2881 166.185 70.1611C166.587 70.0236 167.037 69.9231 167.534 69.8596C168.042 69.7961 168.449 69.7644 168.756 69.7644C169.084 69.7644 169.312 69.8861 169.438 70.1294C169.576 70.3727 169.698 70.7271 169.803 71.1926L169.899 71.6052C170.258 70.9493 170.671 70.4309 171.136 70.05C171.613 69.6586 172.221 69.4629 172.961 69.4629C173.575 69.4629 173.998 69.6216 174.231 69.939C174.464 70.2458 174.58 70.5949 174.58 70.9863C174.58 71.1979 174.543 71.4994 174.469 71.8909C174.395 72.2717 174.289 72.6103 174.152 72.9065C174.014 73.2027 173.861 73.3508 173.691 73.3508C173.575 73.3508 173.4 73.3191 173.168 73.2556C172.85 73.171 172.581 73.1287 172.358 73.1287C171.84 73.1287 171.385 73.2768 170.994 73.573C170.613 73.8586 170.322 74.1813 170.121 74.541V83.6023C170.121 84.1947 169.55 84.491 168.407 84.491H167.629ZM182.784 84.6814C180.383 84.6814 178.6 84.0625 177.437 82.8247C176.273 81.5763 175.691 79.6879 175.691 77.1594C175.691 74.6098 176.278 72.6896 177.452 71.3989C178.627 70.1082 180.457 69.4629 182.943 69.4629C183.652 69.4629 184.366 69.5422 185.085 69.7009C185.815 69.849 186.418 70.0712 186.895 70.3674C187.381 70.6531 187.625 71.0022 187.625 71.4148C187.625 71.5841 187.529 71.8486 187.339 72.2083C187.159 72.568 186.947 72.8906 186.704 73.1763C186.471 73.4513 186.276 73.5889 186.117 73.5889C186.043 73.5889 185.879 73.5148 185.625 73.3667C185.223 73.1763 184.842 73.0282 184.482 72.9224C184.123 72.806 183.684 72.7478 183.165 72.7478C182.054 72.7478 181.245 73.1022 180.737 73.811C180.229 74.5093 179.976 75.5884 179.976 77.0483C179.976 78.5189 180.214 79.6086 180.69 80.3174C181.176 81.0156 181.949 81.3647 183.007 81.3647C183.588 81.3647 184.096 81.3066 184.53 81.1902C184.964 81.0632 185.376 80.9045 185.768 80.7141C185.842 80.6824 185.932 80.6453 186.038 80.603C186.143 80.5607 186.223 80.5396 186.276 80.5396C186.466 80.5396 186.672 80.6771 186.895 80.9521C187.127 81.2166 187.323 81.5234 187.482 81.8726C187.651 82.2217 187.736 82.4915 187.736 82.6819C187.736 83.1685 187.418 83.56 186.783 83.8562C186.149 84.1524 185.44 84.364 184.657 84.491C183.874 84.6179 183.25 84.6814 182.784 84.6814ZM196.733 84.6814C194.258 84.6814 192.412 84.0202 191.195 82.6978C189.978 81.3647 189.37 79.5186 189.37 77.1594C189.37 74.504 189.978 72.5574 191.195 71.3196C192.412 70.0818 194.089 69.4629 196.226 69.4629C197.643 69.4629 198.802 69.7856 199.701 70.4309C200.611 71.0763 201.272 71.9438 201.685 73.0334C202.108 74.1231 202.319 75.3556 202.319 76.731C202.319 76.8896 202.224 77.1012 202.034 77.3657C201.854 77.6302 201.648 77.8682 201.415 78.0798C201.182 78.2914 201.002 78.3972 200.875 78.3972H193.687C193.782 79.4763 194.099 80.2433 194.639 80.6982C195.189 81.1426 195.951 81.3647 196.924 81.3647C197.453 81.3647 197.929 81.3066 198.352 81.1902C198.786 81.0632 199.246 80.8993 199.733 80.6982C200.029 80.5607 200.23 80.4919 200.336 80.4919C200.526 80.4919 200.732 80.6295 200.955 80.9045C201.187 81.169 201.383 81.4758 201.542 81.825C201.711 82.1741 201.796 82.4438 201.796 82.6343C201.796 83.068 201.499 83.4383 200.907 83.7451C200.325 84.0519 199.632 84.2847 198.828 84.4434C198.035 84.6021 197.336 84.6814 196.733 84.6814ZM198.257 75.6201C198.257 74.7526 198.088 74.0597 197.749 73.5413C197.41 73.0123 196.903 72.7478 196.226 72.7478C194.829 72.7478 193.983 73.7052 193.687 75.6201H198.257ZM208.969 84.6814C208.239 84.6814 207.514 84.6021 206.794 84.4434C206.075 84.2847 205.477 84.0572 205.001 83.761C204.536 83.4648 204.303 83.1262 204.303 82.7454C204.303 82.5126 204.388 82.2217 204.557 81.8726C204.726 81.5234 204.927 81.2219 205.16 80.968C205.403 80.7035 205.615 80.5713 205.795 80.5713C205.89 80.5713 206.096 80.6453 206.414 80.7935C206.784 80.9627 207.138 81.1003 207.477 81.2061C207.815 81.3118 208.201 81.3647 208.635 81.3647C209.175 81.3647 209.582 81.2642 209.857 81.0632C210.132 80.8622 210.27 80.566 210.27 80.1746C210.27 79.8783 210.185 79.635 210.016 79.4446C209.857 79.2436 209.651 79.0796 209.397 78.9526C209.143 78.8257 208.783 78.6723 208.318 78.4924L207.858 78.3179C207.255 78.0851 206.726 77.8206 206.271 77.5244C205.816 77.2282 205.43 76.7997 205.112 76.239C204.795 75.6677 204.636 74.9483 204.636 74.0808C204.636 73.1181 204.843 72.2929 205.255 71.6052C205.678 70.907 206.276 70.378 207.048 70.0183C207.821 69.648 208.73 69.4629 209.778 69.4629C210.381 69.4629 211.01 69.5211 211.666 69.6375C212.322 69.7538 212.872 69.9337 213.317 70.177C213.772 70.4203 213.999 70.7271 213.999 71.0974C213.999 71.309 213.93 71.5946 213.793 71.9543C213.666 72.314 213.507 72.6314 213.317 72.9065C213.126 73.1816 212.946 73.3191 212.777 73.3191C212.724 73.3191 212.576 73.2715 212.333 73.1763C212.005 73.0387 211.687 72.9329 211.381 72.8589C211.084 72.7743 210.741 72.7319 210.349 72.7319C209.355 72.7319 208.857 73.0599 208.857 73.7158C208.857 74.012 208.947 74.266 209.127 74.4775C209.318 74.6891 209.55 74.8637 209.825 75.0012C210.101 75.1388 210.487 75.3027 210.984 75.4932C211.555 75.7259 211.91 75.874 212.047 75.9375C212.788 76.3078 213.38 76.7997 213.824 77.4133C214.279 78.0164 214.507 78.8257 214.507 79.8413C214.507 80.804 214.29 81.6504 213.856 82.3804C213.422 83.1104 212.788 83.6764 211.952 84.0784C211.116 84.4804 210.122 84.6814 208.969 84.6814Z" fill="url(#paint0_linear_1_3)"/>
<path d="M27.4723 67.9639H26.6962L29.6454 71.8572L30.111 71.4899L27.4723 67.9639Z" fill="#E6CB1D"/>
<path d="M19.925 68.229L32.8156 49.6012L56.0988 44.785L43.1277 63.5716L27.7524 66.5881L32.8156 59.2851L32.2811 58.4384L26.131 66.9585L19.925 68.229Z" fill="black"/>
<path d="M43.5804 65.312L30.3036 67.7706L35.3064 74.6005C46.0695 74.2921 50.8285 70.7513 56.0393 61.1687L51.277 54.6573L43.5804 65.312Z" fill="black"/>
<ellipse cx="30.8289" cy="73.1244" rx="1.26117" ry="1.26718" fill="#E6CB1D"/>
<path d="M38.454 81.1503C37.198 81.0074 36.7031 81.4857 36.0093 82.8399C33.9936 79.607 32.0491 76.7153 31.4691 75.3837C31.44 74.9104 31.4971 74.6946 31.8571 74.4287C32.3486 74.2367 32.6885 74.3459 33.3705 74.796L38.454 81.1503Z" fill="#E6CB1D"/>
<path d="M38.8642 96.4333C37.727 95.8796 37.7284 95.4634 38.8642 94.7438C51.3211 91.3445 59.4838 90.4812 73.701 89.436C87.1657 88.3517 94.7215 88.1934 108.198 88.0686C126.611 88.0822 139.818 88.8103 148.728 90.8842L123.407 89.436H111.342L96.5574 90.1604L82.4527 90.8842L67.4134 92.4922L42.6877 96.4333C41.1028 96.8485 40.2355 96.9581 38.8642 96.4333Z" fill="#FF9500"/>
<defs>
<linearGradient id="paint0_linear_1_3" x1="41.3269" y1="75.6518" x2="230.075" y2="75.6518" gradientUnits="userSpaceOnUse">
<stop stop-color="#45028C"/>
<stop offset="0.514423" stop-color="#23619F"/>
<stop offset="1" stop-color="#2F97FF"/>
</linearGradient>
</defs>
</svg>
